<svg xmlns="http://www.w3.org/2000/svg" width="308.042" height="119.03" viewBox="0 0 308.042 119.03">
  <g id="logo" transform="translate(-123.108 -504)">
    <g id="Tools" transform="translate(131.89 439.464) rotate(45)">
      <path id="Path_3" data-name="Path 3" d="M84.834,67.708a12.078,12.078,0,0,0-10.919-3.331,1.514,1.514,0,0,1-1.363-.415L28.611,20.027a1.514,1.514,0,0,1-.415-1.363A12.12,12.12,0,0,0,13.186,4.61l7.407,7.419a1.514,1.514,0,0,1,.415,1.363l-1.06,5.36a1.514,1.514,0,0,1-1.193,1.192L13.395,21a1.514,1.514,0,0,1-1.363-.415l-7.42-7.4A12.12,12.12,0,0,0,18.669,28.19a1.471,1.471,0,0,1,.292-.029,1.514,1.514,0,0,1,1.07.443L63.973,72.541a1.514,1.514,0,0,1,.415,1.363A12.113,12.113,0,1,0,84.83,67.713ZM24.619,26.758l2.14-2.139L28.9,26.758,26.759,28.9ZM61.878,64.013,28.565,30.7l2.141-2.141L64.019,61.872Zm4.25,4.251-2.14-2.142,2.14-2.139,2.143,2.139Zm16.324,14.18-8.445,2.262-6.181-6.18,2.262-8.442,8.443-2.263L84.714,74Z" transform="translate(77.299 5.563)"/>
      <path id="Path_5" data-name="Path 5" d="M50.013,50.013l-1.56,5.819,4.259,4.259,5.821-1.558,1.56-5.821L55.83,48.453Z" transform="translate(99.285 27.561)" fill="#fdc236"/>
    </g>
    <g id="logo-2" data-name="logo" transform="translate(0 -1)">
      <path id="Path_7" data-name="Path 7" d="M8.38.28A7.405,7.405,0,0,0,14.4-2.36L11.88-4.64A4.138,4.138,0,0,1,8.58-3a3.754,3.754,0,0,1-3.9-4,3.754,3.754,0,0,1,3.9-4,4.138,4.138,0,0,1,3.3,1.64l2.52-2.28a7.405,7.405,0,0,0-6.02-2.64C3.94-14.28.68-11.26.68-7S3.94.28,8.38.28Zm14.54,0C27.4.28,30.7-2.8,30.7-7s-3.3-7.28-7.78-7.28S15.14-11.2,15.14-7,18.44.28,22.92.28Zm0-3.28a3.749,3.749,0,0,1-3.78-4,3.749,3.749,0,0,1,3.78-4A3.749,3.749,0,0,1,26.7-7,3.749,3.749,0,0,1,22.92-3Zm19.3-11v7.46L36.04-14H32.78V0h3.88V-7.46L42.84,0H46.1V-14ZM53.82.28c4.16,0,6.2-2.08,6.2-4.52,0-5.16-7.94-3.56-7.94-5.7,0-.7.6-1.26,2.26-1.26a8.272,8.272,0,0,1,3.88,1.08l1.22-2.94a10.485,10.485,0,0,0-5.08-1.22c-4.16,0-6.2,2.04-6.2,4.54,0,5.2,7.96,3.58,7.96,5.8,0,.68-.64,1.14-2.28,1.14a8.828,8.828,0,0,1-4.62-1.38l-1.3,2.92A11.026,11.026,0,0,0,53.82.28ZM64.62,0h3.96V-10.86h4.28V-14H60.32v3.14h4.3ZM83,0h4.24L84.22-4.4a4.646,4.646,0,0,0,2.74-4.42c0-3.2-2.4-5.18-6.22-5.18h-6.4V0H78.3V-3.72h2.16Zm-.04-8.82c0,1.28-.82,2.04-2.46,2.04H78.3v-4.1h2.2C82.14-10.88,82.96-10.12,82.96-8.82ZM95.6.28c4.14,0,6.58-2.34,6.58-6.52V-14h-3.9v7.64c0,2.4-1,3.36-2.64,3.36-1.66,0-2.66-.96-2.66-3.36V-14H89.02v7.76C89.02-2.06,91.46.28,95.6.28Zm16.24,0a7.405,7.405,0,0,0,6.02-2.64l-2.52-2.28A4.138,4.138,0,0,1,112.04-3a3.754,3.754,0,0,1-3.9-4,3.754,3.754,0,0,1,3.9-4,4.138,4.138,0,0,1,3.3,1.64l2.52-2.28a7.405,7.405,0,0,0-6.02-2.64c-4.44,0-7.7,3.02-7.7,7.28S107.4.28,111.84.28ZM122.48,0h3.96V-10.86h4.28V-14H118.18v3.14h4.3Zm9.72,0h3.96V-14H132.2Zm13.84.28c4.48,0,7.78-3.08,7.78-7.28s-3.3-7.28-7.78-7.28S138.26-11.2,138.26-7,141.56.28,146.04.28Zm0-3.28a3.749,3.749,0,0,1-3.78-4,3.749,3.749,0,0,1,3.78-4,3.749,3.749,0,0,1,3.78,4A3.749,3.749,0,0,1,146.04-3Zm19.3-11v7.46L159.16-14H155.9V0h3.88V-7.46L165.96,0h3.26V-14Z" transform="translate(211 552)" fill="#fdc236"/>
      <path id="Path_6" data-name="Path 6" d="M29.05,0h12.2L25.95-35H14.35L-.95,0h12L13.4-6.1H26.7ZM16.65-14.6l3.4-8.8,3.4,8.8Zm49.15,5a10.986,10.986,0,0,1-4.3.85c-5.05,0-8.35-3.5-8.35-8.75,0-5.4,3.3-8.75,8.5-8.75A9.985,9.985,0,0,1,69.5-22.4l7.55-6.65c-3.55-4.35-9.1-6.75-16-6.75-11.55,0-19.8,7.55-19.8,18.3S49.5.8,60.8.8A28.277,28.277,0,0,0,76.05-3.65v-14.8H65.8Zm26.9.7v-4.6h14.8V-22H92.7v-4.1h16.85V-35H81.1V0h29.1V-8.9ZM137.75-35v15.9L124.45-35h-9.7V0h11.5V-15.9L139.55,0h9.7V-35ZM173.05.8c6.85,0,12.25-2.5,15.7-7l-7.45-6.65c-2.05,2.6-4.5,4.1-7.65,4.1-4.9,0-8.2-3.4-8.2-8.75s3.3-8.75,8.2-8.75c3.15,0,5.6,1.5,7.65,4.1l7.45-6.65c-3.45-4.5-8.85-7-15.7-7-11.25,0-19.5,7.55-19.5,18.3S161.8.8,173.05.8ZM226.15-35h-11.4l-7.2,12.1L200.4-35H187.95l13.2,22.15V0h11.8V-12.7Z" transform="translate(205 596)" fill="#2a2a2a"/>
    </g>
  </g>
</svg>
